<?xml version="1.0" standalone="no"?>
<!DOCTYPE svg PUBLIC "-//W3C//DTD SVG 20010904//EN"
 "http://www.w3.org/TR/2001/REC-SVG-20010904/DTD/svg10.dtd">
<svg version="1.0" xmlns="http://www.w3.org/2000/svg"
 width="260.000000pt" height="260.000000pt" viewBox="0 0 260.000000 260.000000"
 preserveAspectRatio="xMidYMid meet">
<metadata>
Created by potrace 1.11, written by Peter Selinger 2001-2013
</metadata>
<g transform="translate(0.000000,260.000000) scale(0.100000,-0.100000)"
fill="#000000" stroke="none">
<path d="M1168 2162 c-26 -9 -50 -20 -53 -24 -4 -3 9 -46 29 -95 19 -48 54
-153 76 -233 23 -80 43 -150 45 -157 3 -9 21 -6 67 9 35 11 66 24 70 27 8 7
-56 228 -92 322 -42 107 -73 169 -84 168 -6 0 -32 -8 -58 -17z"/>
<path d="M1762 2108 c-2 -29 -9 -114 -17 -188 -2 -22 -22 -144 -29 -182 -2 -7
-6 -31 -10 -53 -19 -97 -66 -246 -107 -334 -102 -219 -352 -455 -593 -558 -28
-12 -51 -26 -51 -31 0 -5 19 -30 43 -56 l43 -46 80 40 c322 161 546 401 662
710 42 113 90 320 112 480 3 25 8 56 10 70 2 14 7 53 10 86 l5 61 -57 12 c-32
6 -67 14 -78 17 -18 4 -21 0 -23 -28z"/>
<path d="M369 2000 c-150 -211 -221 -441 -223 -725 0 -122 9 -269 19 -285 2
-3 6 -21 9 -40 23 -140 130 -364 229 -480 28 -32 35 -35 100 -38 56 -2 68 0
60 10 -222 281 -315 600 -278 960 22 215 110 446 231 607 30 40 54 74 54 76 0
1 -32 2 -70 2 l-71 -2 -60 -85z"/>
<path d="M753 2062 l-62 -25 26 -50 c36 -72 90 -214 128 -337 18 -58 36 -105
41 -105 29 0 134 40 134 51 0 43 -174 474 -196 486 -5 3 -37 -6 -71 -20z"/>
<path d="M2067 2052 c175 -230 263 -483 266 -767 2 -219 -26 -371 -97 -535
-37 -86 -120 -228 -161 -274 -14 -16 -25 -33 -25 -38 0 -5 30 -8 67 -6 l66 3
52 67 c126 166 207 376 231 598 13 125 4 325 -20 435 -37 173 -97 315 -184
441 -78 113 -72 108 -151 109 l-71 2 27 -35z"/>
</g>
</svg>
